<?xml version="1.0" encoding="UTF-8" standalone="no"?>
<svg
   height="16px"
   viewBox="0 0 16 16"
   width="16px"
   version="1.1"
   id="svg1"
   sodipodi:docname="input-tablet-symbolic-full.svg"
   inkscape:version="1.3 (0e150ed6c4, 2023-07-21)"
   xmlns:inkscape="http://www.inkscape.org/namespaces/inkscape"
   xmlns:sodipodi="http://sodipodi.sourceforge.net/DTD/sodipodi-0.dtd"
   xmlns:xlink="http://www.w3.org/1999/xlink"
   xmlns="http://www.w3.org/2000/svg"
   xmlns:svg="http://www.w3.org/2000/svg">
  <defs
     id="defs1">
    <linearGradient
       id="linearGradient4"
       inkscape:collect="always">
      <stop
         style="stop-color:#fff806;stop-opacity:1;"
         offset="0.19484311"
         id="stop5" />
      <stop
         style="stop-color:#fdfdfd;stop-opacity:0;"
         offset="1"
         id="stop6" />
    </linearGradient>
    <radialGradient
       inkscape:collect="always"
       xlink:href="#linearGradient3"
       id="radialGradient4"
       cx="8.1524115"
       cy="7.8434114"
       fx="8.1524115"
       fy="7.8434114"
       r="12.136064"
       gradientTransform="matrix(1,0,0,0.93940098,0.00204053,2.8501302)"
       gradientUnits="userSpaceOnUse" />
    <linearGradient
       id="linearGradient3"
       inkscape:collect="always">
      <stop
         style="stop-color:#ddd25b;stop-opacity:1;"
         offset="0.55126005"
         id="stop3" />
      <stop
         style="stop-color:#ffffff;stop-opacity:0;"
         offset="0.99989998"
         id="stop4" />
    </linearGradient>
    <radialGradient
       inkscape:collect="always"
       xlink:href="#linearGradient4"
       id="radialGradient6"
       cx="-4.0919166"
       cy="6.4706783"
       fx="-4.0919166"
       fy="6.4706783"
       r="6.8236675"
       gradientTransform="matrix(1.1697278,0,0,0.86375043,12.788523,4.5005204)"
       gradientUnits="userSpaceOnUse" />
  </defs>
  <sodipodi:namedview
     id="namedview1"
     pagecolor="#ffffff"
     bordercolor="#000000"
     borderopacity="0.25"
     inkscape:showpageshadow="2"
     inkscape:pageopacity="0.0"
     inkscape:pagecheckerboard="0"
     inkscape:deskcolor="#d1d1d1"
     inkscape:zoom="17.788155"
     inkscape:cx="7.3925598"
     inkscape:cy="10.259636"
     inkscape:window-width="1920"
     inkscape:window-height="1011"
     inkscape:window-x="0"
     inkscape:window-y="32"
     inkscape:window-maximized="1"
     inkscape:current-layer="svg1" />
  <ellipse
     style="display:none;fill:url(#radialGradient4);fill-opacity:1;fill-rule:evenodd;stroke:#fefefe;stroke-width:0;stroke-linecap:round;stroke-linejoin:round;stroke-dasharray:none;stroke-opacity:0.998941"
     id="path3"
     cx="8.1544523"
     cy="10.218239"
     rx="12.136064"
     ry="11.40063" />
  <path
     d="m 8 0 v 1.5 c 0 0.132812 -0.054688 0.261719 -0.144531 0.355469 c -0.09375 0.09375 -0.21875 0.144531 -0.347657 0.144531 h -3.011718 c -0.535156 0 -1.03125 0.289062 -1.296875 0.75 c -0.265625 0.464844 -0.265625 1.035156 0 1.5 c 0.265625 0.460938 0.761719 0.75 1.296875 0.75 h 3.007812 c 0.179688 0 0.339844 0.09375 0.429688 0.25 c 0.042968 0.074219 0.066406 0.164062 0.066406 0.25 v 0.5 h -5 c -1.644531 0 -3 1.355469 -3 3 v 4 c 0 1.644531 1.355469 3 3 3 h 10 c 1.644531 0 3 -1.355469 3 -3 v -4 c 0 -0.867188 -0.378906 -1.648438 -0.972656 -2.199219 l -1.410156 1.402344 c 0.234374 0.179687 0.382812 0.460937 0.382812 0.796875 v 3 c 0 0.554688 -0.445312 1 -1 1 h -10 c -0.554688 0 -1 -0.445312 -1 -1 v -3 c 0 -0.570312 0.5 -1 1 -1 h 5.191406 l 1.992188 -2 h -1.183594 v -0.5 c 0 -0.257812 -0.066406 -0.515625 -0.199219 -0.75 c -0.265625 -0.460938 -0.761719 -0.75 -1.296875 -0.75 h -3.007812 c -0.179688 0 -0.339844 -0.09375 -0.429688 -0.25 c -0.089844 -0.152344 -0.089844 -0.347656 0 -0.5 c 0.089844 -0.15625 0.25 -0.25 0.429688 -0.25 h 3.011718 c 0.398438 0 0.777344 -0.160156 1.054688 -0.441406 c 0.28125 -0.28125 0.4375 -0.660156 0.4375 -1.058594 v -1.5 z m 7 3 c -0.265625 0 -0.519531 0.105469 -0.703125 0.292969 h -0.003906 l -6.292969 6.316406 v 1.390625 h 1.390625 l 6.316406 -6.292969 l -0.003906 -0.003906 c 0.191406 -0.183594 0.296875 -0.4375 0.296875 -0.703125 c 0 -0.550781 -0.449219 -1 -1 -1 z m 0 0"
     fill="#2e3436"
     id="path1"
     style="fill:#fbfbfb;fill-opacity:1"
     inkscape:label="path1" />
  <ellipse
     style="fill:url(#radialGradient6);fill-rule:evenodd;stroke:#fefefe;stroke-width:0;stroke-linecap:round;stroke-linejoin:bevel;stroke-opacity:0.998941"
     id="path2"
     cx="8.0020952"
     cy="10.089571"
     rx="7.9818311"
     ry="5.8939447" />
</svg>
