<?xml version="1.0" encoding="UTF-8" standalone="no"?>
<svg
   height="16px"
   viewBox="0 0 16 16"
   width="16px"
   version="1.1"
   id="svg1"
   sodipodi:docname="input-tablet-symbolic-on.svg"
   inkscape:version="1.4.2 (ebf0e940d0, 2025-05-08)"
   xmlns:inkscape="http://www.inkscape.org/namespaces/inkscape"
   xmlns:sodipodi="http://sodipodi.sourceforge.net/DTD/sodipodi-0.dtd"
   xmlns="http://www.w3.org/2000/svg"
   xmlns:svg="http://www.w3.org/2000/svg">
  <defs
     id="defs1" />
  <sodipodi:namedview
     id="namedview1"
     pagecolor="#ffffff"
     bordercolor="#000000"
     borderopacity="0.25"
     inkscape:showpageshadow="2"
     inkscape:pageopacity="0.0"
     inkscape:pagecheckerboard="0"
     inkscape:deskcolor="#d1d1d1"
     inkscape:zoom="16"
     inkscape:cx="-3.96875"
     inkscape:cy="6.875"
     inkscape:window-width="1920"
     inkscape:window-height="1011"
     inkscape:window-x="0"
     inkscape:window-y="32"
     inkscape:window-maximized="1"
     inkscape:current-layer="svg1" />
  <rect
     style="fill:#000000;fill-opacity:1;fill-rule:evenodd;stroke:#fefefe;stroke-width:0;stroke-linecap:round;stroke-linejoin:bevel;stroke-dasharray:none;stroke-opacity:0.998941"
     id="rect7"
     width="13.718954"
     height="8.2082367"
     x="1.2108232"
     y="6.7059708"
     ry="4.0702343" />
  <path
     d="M 8,0 V 1.5 C 8,1.632812 7.945312,1.761719 7.855469,1.855469 7.761719,1.949219 7.636719,2 7.507812,2 H 4.496094 c -0.535156,0 -1.03125,0.289062 -1.296875,0.75 -0.265625,0.464844 -0.265625,1.035156 0,1.5 C 3.464844,4.710938 3.960938,5 4.496094,5 H 7.503906 C 7.683594,5 7.84375,5.09375 7.933594,5.25 7.976562,5.324219 8,5.414062 8,5.5 V 6 H 3 C 1.355469,6 0,7.355469 0,9 v 4 c 0,1.644531 1.355469,3 3,3 h 10 c 1.644531,0 3,-1.355469 3,-3 V 9 c 0,-2.2076414 -0.380331,-2.9865247 -2.072602,-2.9924668 -3.616865,-0.0127 -3.7585,-0.012339 -3.7585,-0.012339 L 8.1970367,7.9865123 C 9.397623,8.0508296 8.5640977,8.0117041 12.34442,7.9803464 13.206385,7.9731964 14,8.2500093 14,9 v 3 c 0,0.554688 -0.445312,1 -1,1 H 3 C 2.445312,13 2,12.554688 2,12 V 9 C 2,8.429688 2.5,8 3,8 H 8.191406 L 10.183594,6 H 9 V 5.5 C 9,5.242188 8.933594,4.984375 8.800781,4.75 8.535156,4.289062 8.039062,4 7.503906,4 H 4.496094 C 4.316406,4 4.15625,3.90625 4.066406,3.75 3.976562,3.597656 3.976562,3.402344 4.066406,3.25 4.15625,3.09375 4.316406,3 4.496094,3 H 7.507812 C 7.90625,3 8.285156,2.839844 8.5625,2.558594 8.84375,2.277344 9,1.898438 9,1.5 V 0 Z"
     fill="#2e3436"
     id="path1"
     style="fill:#f9f9f9;fill-opacity:1"
     inkscape:label="path1"
     sodipodi:nodetypes="cscssccsscscssssssssccsssssssscccscssccsscscc" />
</svg>
