<?xml version="1.0" encoding="UTF-8" standalone="no"?>
<svg
   height="22.865286"
   viewBox="0 0 22.865286 22.865286"
   width="22.865286"
   version="1.1"
   id="svg1"
   sodipodi:docname="input-touchpad-symbolic-pref.svg"
   inkscape:version="1.3 (0e150ed6c4, 2023-07-21)"
   inkscape:export-filename="input-tablet-symbolic-off.png"
   inkscape:export-xdpi="1536"
   inkscape:export-ydpi="1536"
   xmlns:inkscape="http://www.inkscape.org/namespaces/inkscape"
   xmlns:sodipodi="http://sodipodi.sourceforge.net/DTD/sodipodi-0.dtd"
   xmlns:xlink="http://www.w3.org/1999/xlink"
   xmlns="http://www.w3.org/2000/svg"
   xmlns:svg="http://www.w3.org/2000/svg">
  <defs
     id="defs1">
    <radialGradient
       inkscape:collect="always"
       xlink:href="#linearGradient2-7"
       id="radialGradient3-2"
       cx="8.0569992"
       cy="9.6849995"
       fx="8.0569992"
       fy="9.6849995"
       r="9.999999"
       gradientUnits="userSpaceOnUse"
       gradientTransform="matrix(1.1232642,0,0,1.1232642,2.3925024,0.58743838)" />
    <linearGradient
       id="linearGradient2-7"
       inkscape:collect="always">
      <stop
         style="stop-color:#7278de;stop-opacity:1;"
         offset="0"
         id="stop2-0" />
      <stop
         style="stop-color:#f2f0fc;stop-opacity:1;"
         offset="1"
         id="stop3-9" />
    </linearGradient>
  </defs>
  <sodipodi:namedview
     id="namedview1"
     pagecolor="#ffffff"
     bordercolor="#000000"
     borderopacity="0.25"
     inkscape:showpageshadow="2"
     inkscape:pageopacity="0.0"
     inkscape:pagecheckerboard="0"
     inkscape:deskcolor="#d1d1d1"
     inkscape:zoom="11.313709"
     inkscape:cx="-2.9168153"
     inkscape:cy="17.147339"
     inkscape:window-width="1665"
     inkscape:window-height="712"
     inkscape:window-x="74"
     inkscape:window-y="81"
     inkscape:window-maximized="0"
     inkscape:current-layer="svg1" />
  <rect
     style="display:none;fill:#000000;fill-opacity:1;fill-rule:evenodd;stroke:#fefefe;stroke-width:0;stroke-linecap:round;stroke-linejoin:bevel;stroke-dasharray:none;stroke-opacity:0.998941"
     id="rect7"
     width="13.718954"
     height="8.2082367"
     x="4.6578231"
     y="6.30797"
     ry="4.0702343" />
  <circle
     style="fill:url(#radialGradient3-2);fill-opacity:1;fill-rule:evenodd;stroke:#d7d8f0;stroke-width:0.2;stroke-linecap:round;stroke-linejoin:bevel;stroke-dasharray:none;stroke-opacity:0.998941"
     id="path2-6"
     cx="11.442643"
     cy="11.466255"
     r="11.232643" />
  <path
     d="m 6.691363,4.7527565 c -1.667969,0 -3.03125,1.363281 -3.03125,3.03125 v 7.9374995 c 0,1.667969 1.363281,3.03125 3.03125,3.03125 h 8.9375 c 1.667969,0 3.03125,-1.363281 3.03125,-3.03125 V 7.7840065 c 0,-1.667969 -1.363281,-3.03125 -3.03125,-3.03125 z m 0,2 h 8.9375 c 0.597656,0 1.03125,0.433594 1.03125,1.03125 v 5.9687495 h -11 V 7.7840065 c 0,-0.597656 0.4375,-1.03125 1.03125,-1.03125 z m -1.03125,7.9999995 h 5 v 2 h -3.96875 c -0.59375,0 -1.03125,-0.433594 -1.03125,-1.03125 z m 6,0 h 5 v 0.96875 c 0,0.597656 -0.433594,1.03125 -1.03125,1.03125 h -3.96875 z m 0,0"
     fill="#2e3436"
     id="path1-5" />
</svg>
