<?xml version="1.0" encoding="UTF-8" standalone="no"?>
<svg
   height="16px"
   viewBox="0 0 16 16"
   width="16px"
   version="1.1"
   id="svg1"
   sodipodi:docname="input-touchpad-symbolic.svg"
   inkscape:version="1.3 (0e150ed6c4, 2023-07-21)"
   xmlns:inkscape="http://www.inkscape.org/namespaces/inkscape"
   xmlns:sodipodi="http://sodipodi.sourceforge.net/DTD/sodipodi-0.dtd"
   xmlns="http://www.w3.org/2000/svg"
   xmlns:svg="http://www.w3.org/2000/svg">
  <defs
     id="defs1" />
  <sodipodi:namedview
     id="namedview1"
     pagecolor="#ffffff"
     bordercolor="#000000"
     borderopacity="0.25"
     inkscape:showpageshadow="2"
     inkscape:pageopacity="0.0"
     inkscape:pagecheckerboard="0"
     inkscape:deskcolor="#d1d1d1"
     inkscape:zoom="50.3125"
     inkscape:cx="8"
     inkscape:cy="8"
     inkscape:window-width="1920"
     inkscape:window-height="1011"
     inkscape:window-x="0"
     inkscape:window-y="32"
     inkscape:window-maximized="1"
     inkscape:current-layer="svg1" />
  <path
     d="m 3.03125 1 c -1.667969 0 -3.03125 1.363281 -3.03125 3.03125 v 7.9375 c 0 1.667969 1.363281 3.03125 3.03125 3.03125 h 8.9375 c 1.667969 0 3.03125 -1.363281 3.03125 -3.03125 v -7.9375 c 0 -1.667969 -1.363281 -3.03125 -3.03125 -3.03125 z m 0 2 h 8.9375 c 0.597656 0 1.03125 0.433594 1.03125 1.03125 v 5.96875 h -11 v -5.96875 c 0 -0.597656 0.4375 -1.03125 1.03125 -1.03125 z m -1.03125 8 h 5 v 2 h -3.96875 c -0.59375 0 -1.03125 -0.433594 -1.03125 -1.03125 z m 6 0 h 5 v 0.96875 c 0 0.597656 -0.433594 1.03125 -1.03125 1.03125 h -3.96875 z m 0 0"
     fill="#2e3436"
     id="path1" />
</svg>
