<?xml version="1.0" encoding="UTF-8" standalone="no"?>
<svg
   height="22.865286"
   viewBox="0 0 22.865286 22.865286"
   width="22.865286"
   version="1.1"
   id="svg1"
   sodipodi:docname="input-tablet-symbolic-off-pref.svg"
   inkscape:version="1.3 (0e150ed6c4, 2023-07-21)"
   inkscape:export-filename="input-tablet-symbolic-off.png"
   inkscape:export-xdpi="1536"
   inkscape:export-ydpi="1536"
   xmlns:inkscape="http://www.inkscape.org/namespaces/inkscape"
   xmlns:sodipodi="http://sodipodi.sourceforge.net/DTD/sodipodi-0.dtd"
   xmlns:xlink="http://www.w3.org/1999/xlink"
   xmlns="http://www.w3.org/2000/svg"
   xmlns:svg="http://www.w3.org/2000/svg">
  <defs
     id="defs1">
    <linearGradient
       id="linearGradient2"
       inkscape:collect="always">
      <stop
         style="stop-color:#1d1d1d;stop-opacity:1;"
         offset="0.34964335"
         id="stop2" />
      <stop
         style="stop-color:#e3e3e3;stop-opacity:0.80032116;"
         offset="1"
         id="stop3" />
    </linearGradient>
    <radialGradient
       inkscape:collect="always"
       xlink:href="#linearGradient2"
       id="radialGradient3"
       cx="8.0569992"
       cy="9.6849995"
       fx="8.0569992"
       fy="9.6849995"
       r="9.999999"
       gradientUnits="userSpaceOnUse"
       gradientTransform="matrix(0.7991953,0,0,0.46384052,4.9011201,8.8340955)" />
    <radialGradient
       inkscape:collect="always"
       xlink:href="#linearGradient2-7"
       id="radialGradient3-2"
       cx="8.0569992"
       cy="9.6849995"
       fx="8.0569992"
       fy="9.6849995"
       r="9.999999"
       gradientUnits="userSpaceOnUse"
       gradientTransform="matrix(1.1232642,0,0,1.1232642,2.3925024,0.58743838)" />
    <linearGradient
       id="linearGradient2-7"
       inkscape:collect="always">
      <stop
         style="stop-color:#7278de;stop-opacity:1;"
         offset="0"
         id="stop2-0" />
      <stop
         style="stop-color:#f2f0fc;stop-opacity:1;"
         offset="1"
         id="stop3-9" />
    </linearGradient>
  </defs>
  <sodipodi:namedview
     id="namedview1"
     pagecolor="#ffffff"
     bordercolor="#000000"
     borderopacity="0.25"
     inkscape:showpageshadow="2"
     inkscape:pageopacity="0.0"
     inkscape:pagecheckerboard="0"
     inkscape:deskcolor="#d1d1d1"
     inkscape:zoom="11.313709"
     inkscape:cx="-2.7400388"
     inkscape:cy="17.147339"
     inkscape:window-width="1665"
     inkscape:window-height="712"
     inkscape:window-x="74"
     inkscape:window-y="81"
     inkscape:window-maximized="0"
     inkscape:current-layer="svg1" />
  <rect
     style="display:none;fill:#000000;fill-opacity:1;fill-rule:evenodd;stroke:#fefefe;stroke-width:0;stroke-linecap:round;stroke-linejoin:bevel;stroke-dasharray:none;stroke-opacity:0.998941"
     id="rect7"
     width="13.718954"
     height="8.2082367"
     x="4.6578231"
     y="6.30797"
     ry="4.0702343" />
  <circle
     style="fill:url(#radialGradient3-2);fill-opacity:1;fill-rule:evenodd;stroke:#d7d8f0;stroke-width:0.2;stroke-linecap:round;stroke-linejoin:bevel;stroke-dasharray:none;stroke-opacity:0.998941"
     id="path2-6"
     cx="11.442643"
     cy="11.466255"
     r="11.232643" />
  <ellipse
     style="fill:url(#radialGradient3);fill-opacity:1;fill-rule:evenodd;stroke:#888888;stroke-width:0.108407;stroke-linecap:round;stroke-linejoin:bevel;stroke-dasharray:none;stroke-opacity:0.998941"
     id="path2"
     cx="11.340238"
     cy="13.326392"
     rx="7.9919538"
     ry="4.6384058" />
  <path
     d="m 11.447,2.502 v 1.5 c 0,0.132812 -0.05469,0.261719 -0.144531,0.355469 C 11.208719,4.451219 11.083719,4.502 10.954812,4.502 H 7.9430937 c -0.535156,0 -1.03125,0.289062 -1.296875,0.75 -0.265625,0.464844 -0.265625,1.035156 0,1.5 0.265625,0.460938 0.761719,0.75 1.296875,0.75 h 3.0078123 c 0.179688,0 0.339844,0.09375 0.429688,0.25 0.04297,0.074219 0.06641,0.164062 0.06641,0.25 v 0.5 H 6.4469997 c -1.644531,0 -3,1.355469 -3,3 v 4 c 0,1.644531 1.355469,3 3,3 h 9.9999993 c 1.644531,0 3,-1.355469 3,-3 v -4 c 0,-2.2076414 -0.380331,-2.9865247 -2.072602,-2.9924668 -3.616865,-0.0127 -3.7585,-0.012339 -3.7585,-0.012339 l -1.971861,1.9913178 c 1.200586,0.06432 0.367061,0.02519 4.147383,-0.0062 0.861965,-0.0072 1.65558,0.269663 1.65558,1.019654 V 14.502 c 0,0.554688 -0.445312,1 -1,1 H 6.4469997 c -0.554688,0 -1,-0.445312 -1,-1 v -3 c 0,-0.570312 0.5,-1 1,-1 h 5.1914053 l 1.992188,-2 h -1.183594 v -0.5 c 0,-0.257812 -0.06641,-0.515625 -0.199219,-0.75 -0.265625,-0.460938 -0.761718,-0.75 -1.296874,-0.75 H 7.9430937 c -0.179688,0 -0.339844,-0.09375 -0.429688,-0.25 -0.089844,-0.152344 -0.089844,-0.347656 0,-0.5 0.089844,-0.15625 0.25,-0.25 0.429688,-0.25 h 3.0117183 c 0.398438,0 0.777343,-0.160156 1.054687,-0.441406 0.28125,-0.28125 0.4375,-0.660156 0.4375,-1.058594 v -1.5 z"
     fill="#2e3436"
     id="path1"
     style="fill:#222222;fill-opacity:1"
     inkscape:label="path1"
     sodipodi:nodetypes="cscssccsscscssssssssccsssssssscccscssccsscscc" />
  <path
     style="display:inline;fill:#fd0303;fill-opacity:1;fill-rule:evenodd;stroke:#fefefe;stroke-width:0.312;stroke-linecap:round;stroke-linejoin:round;stroke-dasharray:none;stroke-opacity:0.66594994"
     d="m 3.1432588,17.339959 c -0.09124,0.07526 1.1390358,1.892628 1.2520413,1.800141 C 7.6249917,17.009793 17.332653,11.220315 20.292706,9.4128057 L 19.021167,7.6725859 C 15.797533,9.6114766 6.2362831,15.27326 3.1432588,17.339959 Z"
     id="path3-6"
     sodipodi:nodetypes="ccccc" />
</svg>
